<svg width="148" height="124" viewBox="0 0 148 124" fill="none" xmlns="http://www.w3.org/2000/svg">
<g clip-path="url(#clip0_505_823)">
<path d="M1.10389 65.5603C9.76271 62.5255 18.4283 59.5975 26.9452 56.1742C35.3241 52.7826 43.3175 48.5108 50.7926 43.4297C65.0204 33.7212 77.6065 21.5022 93.1287 13.7025C100.867 9.60892 109.411 7.26272 118.167 6.82732C118.311 6.83749 118.448 6.89225 118.559 6.98403C118.671 7.07582 118.751 7.20006 118.789 7.3394C118.827 7.47874 118.821 7.62624 118.772 7.76143C118.722 7.89661 118.632 8.01273 118.514 8.0936L95.8818 18.9468C88.339 22.5823 80.9571 26.4015 73.3251 29.9778C72.2538 30.5964 71.2149 28.8445 72.3548 28.2971C79.8856 24.6408 87.543 21.2988 95.151 17.681L117.843 6.93158C118.046 7.28434 118.065 7.74414 118.177 8.17712C101.461 8.53211 86.9486 18.1283 74.5075 28.4098C67.6481 34.0855 60.9942 39.9745 53.7529 45.179C46.5389 50.2763 38.7664 54.5316 30.585 57.8633C21.1402 61.6725 11.4782 64.9228 1.64841 67.5976C0.400751 67.9583 -0.0718916 66.0455 1.13982 65.6225L1.10389 65.5603Z" fill="black" fill-opacity="0.1"/>
<path d="M2.77555 64.9827C16.9671 63.0143 28.9717 53.2614 43.7409 54.1966C50.886 54.9325 57.917 56.5614 64.6703 59.0453C71.7611 61.3837 78.7134 64.1319 85.4921 67.2762C93.1037 70.8853 100.507 74.9243 107.667 79.3738C107.835 79.4753 107.965 79.6281 108.04 79.8095C108.114 79.9909 108.129 80.1912 108.081 80.3806C108.032 80.57 107.925 80.7384 107.773 80.8607C107.622 80.983 107.434 81.0527 107.24 81.0595C99.6538 80.9571 91.8619 80.9736 85.053 77.2686C78.2441 73.5636 73.3261 66.9961 66.5344 63.2258C66.351 63.1226 66.2155 62.9507 66.1577 62.748C66.0999 62.5453 66.1246 62.3283 66.2263 62.1449C66.328 61.9614 66.4984 61.8264 66.7001 61.7697C66.9017 61.713 67.118 61.7391 67.3014 61.8423C73.8171 65.4676 79.0163 70.9044 85.4117 74.6545C91.8071 78.4045 99.7729 79.1176 107.321 79.2972C107.174 79.8522 107.007 80.419 106.873 80.9948C100.638 77.2241 94.1753 73.8491 87.5235 70.8899C80.7749 67.7788 73.8567 65.0573 66.8027 62.7389C60.0822 60.3141 53.1541 58.5248 46.1091 57.3944C39.1228 56.6193 32.0632 57.5186 25.511 60.0183C18.1549 62.5499 10.9143 65.9002 3.055 66.3707C2.28981 66.4252 2.10284 65.1498 2.86467 65.042L2.77555 64.9827Z" fill="black" fill-opacity="0.1"/>
<path d="M35.6132 53.9642C41.8595 55.6939 48.2263 56.9389 54.657 57.6883C60.6255 58.2304 66.6361 57.771 72.4418 56.3291C83.217 53.6771 93.2321 48.6142 103.98 45.8672C109.822 44.2467 115.932 43.8028 121.96 44.5612L121.474 46.3359C105.923 42.1659 89.4257 43.8212 75.0737 50.9914C70.9978 53.0159 67.1778 55.5186 63.6933 58.4473C63.5803 58.5671 63.4428 58.6609 63.29 58.7221C63.1372 58.7833 62.9729 58.8106 62.8082 58.8021C62.6435 58.7936 62.4824 58.7494 62.3358 58.6727C62.1893 58.5959 62.0608 58.4885 61.9592 58.3576C61.8576 58.2267 61.7852 58.0754 61.7471 57.9142C61.709 57.753 61.7059 57.5856 61.7382 57.4236C61.7705 57.2615 61.8374 57.1087 61.9342 56.9754C62.0311 56.8421 62.1556 56.7316 62.2993 56.6514C75.3796 46.5675 91.625 41.4815 108.154 42.2957C112.805 42.5486 117.42 43.287 121.924 44.4989C123.097 44.8178 122.58 46.4442 121.438 46.2737C110.161 44.6781 99.2669 48.8374 88.924 52.7615C78.5811 56.6856 67.6464 60.5364 56.1522 59.5641C49.0659 58.7482 42.0621 57.3014 35.2238 55.2405C34.356 55.0221 34.7095 53.6836 35.5773 53.902L35.6132 53.9642Z" fill="black" fill-opacity="0.1"/>
<path d="M1.69753 65.4943C6.6428 64.2 11.8226 64.047 16.8494 65.0466C22.1052 65.9329 27.2785 67.2688 32.3127 69.0395C43.6864 72.848 55.2508 76.4635 66.2508 81.2901C72.0723 83.6545 77.5421 86.8193 82.5027 90.6932C83.0648 91.1433 82.2814 91.9276 81.7399 91.4655C77.3343 88.0364 72.4642 85.2575 67.2792 83.2141C62.1288 81.097 56.732 79.6477 51.4628 77.8482L34.321 71.947C29.5183 70.2279 24.6195 68.7971 19.6507 67.6623C16.7862 67.0214 13.8719 66.6392 10.9427 66.5202C8.03061 66.5076 5.12422 66.7418 2.25445 67.2202C2.04072 67.251 1.82263 67.2019 1.64168 67.0822C1.46072 66.9625 1.32944 66.7806 1.27279 66.5709C1.21614 66.3612 1.23806 66.1385 1.33438 65.9449C1.43069 65.7513 1.59471 65.6005 1.79527 65.5209L1.69753 65.4943Z" fill="black" fill-opacity="0.1"/>
</g>
<defs>
<clipPath id="clip0_505_823">
<rect width="132.34" height="66.6102" fill="white" transform="matrix(-0.866025 0.5 0.5 0.866025 114.61 0)"/>
</clipPath>
</defs>
</svg>
