<svg width="32" height="32" viewBox="0 0 32 32" fill="none" xmlns="http://www.w3.org/2000/svg">
<g id="pointer ">
<path id="Vector" d="M28.2023 3.81339C27.6929 3.29414 27.047 2.92968 26.3391 2.76215C25.6313 2.59463 24.8905 2.63088 24.2023 2.86672L5.33568 9.17339C4.57476 9.42246 3.90993 9.90158 3.43295 10.5446C2.95597 11.1877 2.69037 11.9629 2.67281 12.7634C2.65525 13.5638 2.88659 14.35 3.33491 15.0133C3.78324 15.6767 4.42642 16.1845 5.17568 16.4667L12.1623 19.1334C12.3214 19.1942 12.4663 19.2872 12.5879 19.4065C12.7095 19.5258 12.8052 19.6688 12.869 19.8267L15.5357 26.8267C15.8071 27.5654 16.2997 28.2024 16.9463 28.6509C17.5929 29.0995 18.3621 29.3378 19.149 29.3334H19.2423C20.0437 29.3188 20.8204 29.0538 21.4636 28.5756C22.1068 28.0974 22.5842 27.4299 22.829 26.6667L29.1357 7.77339C29.365 7.09197 29.3992 6.35998 29.2342 5.66017C29.0693 4.96036 28.7119 4.32066 28.2023 3.81339ZM26.669 6.93339L20.2957 25.8401C20.2217 26.0793 20.073 26.2887 19.8715 26.4374C19.67 26.5862 19.4262 26.6665 19.1757 26.6667C18.9267 26.6708 18.6823 26.599 18.4751 26.4609C18.2679 26.3227 18.1077 26.1248 18.0157 25.8934L15.349 18.8934C15.1557 18.3848 14.8575 17.9225 14.4739 17.5366C14.0903 17.1507 13.6298 16.8497 13.1223 16.6534L6.12234 13.9867C5.8862 13.9002 5.68321 13.7417 5.54206 13.5335C5.4009 13.3254 5.32871 13.0781 5.33568 12.8267C5.33588 12.5762 5.41623 12.3324 5.56498 12.1309C5.71372 11.9294 5.92305 11.7807 6.16234 11.7067L25.069 5.40005C25.2861 5.31158 25.5241 5.28788 25.7544 5.33182C25.9846 5.37576 26.1972 5.48545 26.3665 5.64764C26.5357 5.80982 26.6543 6.01756 26.708 6.24574C26.7617 6.47391 26.7482 6.71275 26.669 6.93339Z" fill="#FFBC57"/>
</g>
</svg>
