<svg width="108" height="104" viewBox="0 0 108 104" fill="none" xmlns="http://www.w3.org/2000/svg">
<path d="M97.01 53.5696C100.2 49.9396 102.18 45.2096 103.28 40.4796C103.72 38.7196 104.05 36.9596 105.26 35.6396C105.26 41.4696 104.05 47.4096 101.52 52.6896C98.88 58.2996 94.59 63.5796 88.76 65.4496C87 65.9996 84.91 66.2196 83.48 65.1196C79.96 62.4796 84.36 60.3896 86.56 59.8396C90.63 58.6296 94.04 56.8696 97.01 53.5696Z" fill="#4390FF"/>
<path d="M93.5998 15.8396L91.8398 25.6296L85.7898 24.0896L89.3098 14.8496L93.5998 15.8396Z" fill="#4D96FF"/>
<path d="M9.22998 18.3696L19.9 104.94C19.9 104.94 20.12 106.37 21.55 107.47C22.98 108.57 25.07 109.45 25.07 109.45L23.2 18.9196L9.22998 18.3696Z" fill="#4390FF"/>
<path d="M101.63 35.09C101.41 34.76 101.19 34.54 101.19 34.1C101.08 33.77 101.3 33.33 101.63 33.22C101.96 33.11 102.4 33.44 102.51 33.77C102.73 34.1 102.84 34.43 103.17 34.65C103.17 33.33 103.28 31.9 103.5 30.58C103.61 30.25 103.72 29.81 104.05 29.81C104.27 29.81 104.6 29.92 104.71 30.25C104.82 30.47 104.82 30.8 104.82 31.02C105.04 30.69 104.93 30.25 105.04 29.81C105.15 29.37 105.59 29.04 105.92 29.26C106.14 29.37 106.14 29.7 106.14 29.92C106.14 30.36 106.14 30.8 106.14 31.13C106.14 30.91 106.14 30.8 106.25 30.69C106.36 30.58 106.47 30.47 106.69 30.47C106.8 30.47 106.91 30.58 106.91 30.69C107.46 31.46 107.35 32.56 107.13 33.44C106.58 36.41 105.59 39.38 104.16 42.02C103.72 42.9 103.5 42.02 103.39 41.47C103.28 40.7 103.39 39.93 103.28 39.16C102.95 37.73 102.4 36.3 101.63 35.09Z" fill="#4390FF"/>
<path d="M14.3998 65.9997C10.6598 69.0797 8.01979 73.3697 6.03979 77.8797C5.37979 79.5297 4.71979 81.1797 3.28979 82.2797C4.16979 76.4497 6.47979 70.9497 9.7798 66.1097C13.2998 60.9397 18.3598 56.5397 24.4098 55.6597C26.2798 55.3297 28.3698 55.5497 29.5798 56.8697C32.5498 60.0597 27.9298 61.3797 25.7298 61.5997C21.5498 62.0397 17.8098 63.2497 14.3998 65.9997Z" fill="#4390FF"/>
<path d="M6.80989 83.4898C6.91989 83.8198 7.13989 84.1498 7.13989 84.4798C7.13989 84.8098 6.91989 85.2498 6.58989 85.2498C6.25989 85.2498 5.92989 84.9198 5.70989 84.5898C5.59989 84.2598 5.48989 83.8198 5.26989 83.5998C5.04989 84.9198 4.71989 86.2398 4.27989 87.5598C4.16989 87.8898 3.94989 88.2198 3.61989 88.2198C3.39989 88.2198 3.17989 87.9998 3.06989 87.7798C2.95989 87.5598 3.06989 87.2298 3.06989 87.0098C2.84989 87.3398 2.84989 87.7798 2.73989 88.2198C2.62989 88.6598 2.07989 88.8798 1.74989 88.6598C1.52989 88.4398 1.63989 88.2198 1.63989 87.9998C1.74989 87.5598 1.74989 87.1198 1.85989 86.7898C1.85989 86.8998 1.74989 87.1198 1.63989 87.2298C1.52989 87.3398 1.30989 87.4498 1.19989 87.3398C1.08989 87.3398 1.08989 87.2298 0.979894 87.1198C0.539894 86.2398 0.869894 85.2498 1.19989 84.3698C2.18989 81.5098 3.72989 78.7598 5.59989 76.3398C6.25989 75.5698 6.25989 76.4498 6.25989 76.9998C6.25989 77.7698 6.03989 78.5398 6.03989 79.1998C5.92989 80.6298 6.25989 82.0598 6.80989 83.4898Z" fill="#4390FF"/>
<path d="M14.73 24.0898L25.18 109.45H87.44L97.34 24.0898H14.73Z" fill="#5AB1FF"/>
<path d="M14.7298 24.0897C14.7298 24.0897 9.00982 22.3297 9.22982 18.4797C9.44982 14.6297 16.0498 13.9697 16.0498 13.9697H92.7198L93.7098 15.8397L91.9498 16.0597L86.6698 21.1197L95.9098 21.8897L97.4498 24.0897H14.7298Z" fill="#83C4FF"/>
<path d="M91.9498 15.9497H15.7198L15.2798 21.2297L95.0298 21.7797C95.0298 21.7797 93.2698 20.3497 92.3898 18.8097C91.1798 16.8297 91.9498 15.9497 91.9498 15.9497Z" fill="#FFECBB"/>
<path d="M15.7198 15.9499C15.7198 15.9499 12.7498 15.6199 12.0898 17.9299C11.3198 21.0099 15.2798 21.2299 15.2798 21.2299L15.7198 15.9499Z" fill="#4D96FF"/>
<path d="M16.8198 17.6C19.1298 17.71 21.3298 17.71 23.6398 17.71C25.9498 17.71 28.1498 17.71 30.4598 17.71C34.9698 17.71 39.5898 17.71 44.0998 17.71C53.1198 17.71 62.2498 17.82 71.2698 17.71C73.7998 17.71 76.3298 17.6 78.9698 17.6C81.4998 17.6 84.0298 17.6 86.6698 17.6C86.7798 17.6 86.7798 17.49 86.6698 17.49C82.1598 17.38 77.5398 17.49 73.0298 17.38C68.5198 17.27 63.8998 17.27 59.3898 17.27C50.3698 17.27 41.2398 17.27 32.2198 17.27C29.6898 17.27 27.1598 17.27 24.5198 17.27C21.9898 17.38 19.4598 17.38 16.8198 17.6Z" fill="#FFCB92"/>
<path d="M16.8198 19.4699C19.0198 19.5799 21.3298 19.5799 23.5298 19.5799C25.7298 19.5799 28.0398 19.5799 30.2398 19.5799C34.7498 19.5799 39.1498 19.5799 43.6598 19.5799C44.8698 19.5799 46.1898 19.5799 47.3998 19.5799C48.6098 19.5799 49.9298 19.5799 51.1398 19.5799C51.2498 19.5799 51.2498 19.3599 51.1398 19.3599C50.0398 19.2499 48.8298 19.3599 47.7298 19.3599C46.6298 19.3599 45.5298 19.3599 44.4298 19.3599C42.2298 19.3599 39.9198 19.3599 37.7198 19.3599C33.2098 19.3599 28.8098 19.3599 24.2998 19.3599C21.8798 19.3599 19.3498 19.2499 16.8198 19.4699Z" fill="#FFCB92"/>
<path d="M22.98 18.5897C25.18 18.6997 27.38 18.5897 29.69 18.5897C31.89 18.5897 34.09 18.5897 36.4 18.5897C40.8 18.5897 45.31 18.5897 49.71 18.5897C58.51 18.5897 67.42 18.5897 76.22 18.5897C78.75 18.5897 81.17 18.5897 83.7 18.5897C86.23 18.5897 88.65 18.5897 91.18 18.5897C91.29 18.5897 91.29 18.3697 91.18 18.3697C86.78 18.2597 82.27 18.3697 77.87 18.3697C73.47 18.3697 68.96 18.3697 64.56 18.3697C55.76 18.3697 46.85 18.3697 38.05 18.3697C35.52 18.3697 33.1 18.3697 30.57 18.3697C27.93 18.4797 25.4 18.4797 22.98 18.5897C22.87 18.5897 22.87 18.5897 22.98 18.5897Z" fill="#FFCB92"/>
<path d="M20.8899 20.68C29.9099 20.79 39.0399 20.79 48.0599 20.79C57.0799 20.79 66.0999 20.79 75.1199 20.79C80.1799 20.79 85.2399 20.79 90.4099 20.79C90.6299 20.79 90.6299 20.46 90.4099 20.46C81.3899 20.35 72.2599 20.46 63.2399 20.46C54.2199 20.46 45.1999 20.46 36.1799 20.46C31.0099 20.57 25.9499 20.57 20.8899 20.68C20.7799 20.68 20.7799 20.68 20.8899 20.68Z" fill="#FFCB92"/>
<path d="M53.3399 18.3697L51.3599 11.4397L74.3499 6.92969L76.7699 18.3697H53.3399Z" fill="#FFC043"/>
<path d="M69.29 18.5898C68.96 15.5098 69.18 12.2098 70.17 9.2398C71.16 6.2698 73.14 3.5198 75.78 1.8698C75.56 3.4098 75.45 4.9498 75.56 6.4898C76.33 4.5098 78.31 3.2998 80.18 2.1998C81.5 1.4298 82.82 0.659805 84.36 0.549805C82.16 3.1898 81.06 6.59981 80.29 10.0098C79.63 12.7598 79.08 15.8398 80.07 18.4798L69.29 18.5898Z" fill="#E86A43"/>
<path d="M20.01 19.47L22.21 9.45996L40.58 14.52L39.37 19.47H20.01Z" fill="#7FC133"/>
<path d="M25.84 33.9897C25.4 34.5397 25.07 35.1998 24.96 35.9698C24.96 36.0798 24.96 36.1897 24.96 36.2997C25.07 36.5197 25.4 36.4097 25.62 36.2997C28.59 34.4297 31.56 32.6697 34.53 30.7997C34.86 30.5797 35.19 30.3597 35.41 30.0297C35.63 29.6997 35.74 29.2597 35.52 28.9297C35.41 28.7097 35.19 28.5997 34.86 28.4897C32.88 27.7197 31.67 28.9298 30.13 29.9198C28.48 30.9098 27.05 32.3397 25.84 33.9897Z" fill="#413E49"/>
<path d="M84.0299 33.3296C84.4699 33.8796 84.7999 34.5396 84.9099 35.3096C84.9099 35.4196 84.9099 35.5296 84.9099 35.6396C84.7999 35.8596 84.4699 35.7496 84.2499 35.6396C81.2799 33.7696 78.3099 32.0096 75.3399 30.1396C75.0099 29.9196 74.6799 29.6996 74.4599 29.3696C74.2399 29.0396 74.1299 28.5996 74.3499 28.2696C74.4599 28.0496 74.6799 27.9396 75.0099 27.8296C76.9899 27.0596 78.1999 28.2696 79.7399 29.2596C81.3899 30.3596 82.9299 31.6796 84.0299 33.3296Z" fill="#413E49"/>
<path d="M55.5398 68.5299C55.4298 68.5299 55.4298 68.5299 55.5398 68.5299C55.4298 68.5299 55.3198 68.5299 55.3198 68.5299C50.1498 68.6399 44.9798 66.1099 41.7898 62.1499C42.2298 64.0199 42.7798 65.7799 43.2198 67.6499C43.9898 70.5099 44.7598 73.3699 46.1898 75.8999C47.6198 78.4299 49.9298 80.6299 52.6798 81.3999C53.5598 81.6199 54.5498 81.7299 55.4298 81.7299C56.3098 81.8399 57.2998 81.7299 58.1798 81.3999C60.9298 80.6299 63.2398 78.4299 64.6698 75.8999C66.0998 73.3699 66.8698 70.5099 67.6398 67.6499C68.0798 65.8899 68.6298 64.0199 69.0698 62.1499C65.8798 66.1099 60.5998 68.6399 55.5398 68.5299Z" fill="#413E49"/>
<path d="M55.43 68.5297C55.32 68.5297 55.21 68.5297 55.21 68.5297C51.25 68.6397 47.29 67.0997 44.21 64.6797C44.32 65.4497 44.32 66.2197 44.32 66.9897C44.32 67.2097 44.32 67.5397 44.43 67.7597C44.54 68.0897 44.76 68.4197 45.09 68.7497C46.96 70.8397 49.71 71.8297 52.46 72.2697C56.97 72.9297 61.7 71.8297 65.55 69.1897C65.77 69.0797 65.99 68.8597 66.21 68.5297C66.32 68.1997 66.32 67.7597 66.32 67.4297C66.21 66.6597 66.1 65.7797 65.99 65.0097C62.91 67.3197 59.17 68.6397 55.43 68.5297Z" fill="white"/>
<path d="M62.6898 78.4297C62.6898 78.3197 62.5798 78.2097 62.4698 77.9897C61.4798 75.8997 59.0598 74.5797 56.8598 74.7997C55.8698 74.9097 54.8798 75.3497 54.6598 76.2297C53.2298 75.1297 51.1398 75.1297 49.7098 76.2297C48.7198 76.8897 48.3898 77.7697 48.2798 78.6497C49.4898 79.8597 50.9198 80.8497 52.5698 81.2897C53.4498 81.5097 54.4398 81.6197 55.3198 81.6197C56.1998 81.7297 57.1898 81.6197 58.0698 81.2897C59.8298 80.8497 61.3698 79.8597 62.6898 78.4297Z" fill="#FF624D"/>
<path d="M40.6899 62.9199C40.5799 62.8099 40.5799 62.4799 40.5799 62.3699C40.5799 62.1499 40.5799 62.0399 40.5799 61.8199C40.6899 61.4899 40.7999 61.1599 41.0199 60.8299C41.2399 60.6099 41.5699 60.4999 41.8999 60.4999C42.2299 60.4999 42.5599 60.8299 42.7799 60.9399C42.8899 61.0499 42.9999 60.9399 42.8899 60.8299C42.6699 60.4999 42.4499 60.2799 42.1199 60.1699C41.7899 60.0599 41.4599 60.0599 41.1299 60.2799C40.4699 60.6099 40.1399 61.3799 40.1399 62.0399C40.1399 62.2599 40.1399 62.4799 40.2499 62.5899C40.4699 62.9199 40.5799 62.9199 40.6899 62.9199C40.7999 63.0299 40.7999 62.9199 40.6899 62.9199Z" fill="#413E49"/>
<path d="M67.97 61.93C68.19 61.6 68.5199 61.27 68.9599 61.05C69.3999 60.83 69.8399 60.83 70.1699 61.16C70.9399 61.82 70.5 62.92 70.28 63.8C70.28 63.91 70.39 63.91 70.39 63.8C70.83 63.03 71.1599 62.0401 70.7199 61.2701C70.4999 60.9401 70.28 60.72 69.95 60.61C69.51 60.5 69.07 60.61 68.74 60.83C68.52 60.94 68.41 61.0501 68.3 61.2701C67.97 61.4901 67.97 61.71 67.97 61.93C67.86 61.93 67.86 61.93 67.97 61.93Z" fill="#413E49"/>
<path d="M28.5899 40.6996C27.9299 43.3396 28.4799 46.1996 29.2499 48.7296C30.1299 51.5896 31.3399 54.3396 33.4299 56.3196C35.5199 58.2996 38.8199 59.1796 41.2399 57.7496C42.4499 56.9796 43.4399 55.7696 43.9899 54.4496C44.5399 53.0196 44.7599 51.5896 44.8699 50.0496C45.0899 47.0796 44.7599 43.9996 43.8799 41.0296C43.5499 39.8196 43.1099 38.6096 42.3399 37.6196C40.5799 35.1996 37.3899 34.3196 34.7499 35.3096C33.5399 35.7496 32.1099 35.9696 31.0099 36.7396C29.7999 37.7296 28.9199 39.1596 28.5899 40.6996Z" fill="#3B82FF"/>
<path d="M29.1399 42.1298C28.4799 44.6598 29.0299 47.4098 29.7999 49.9398C30.6799 52.6898 31.7799 55.4398 33.8699 57.4198C35.9599 59.2898 39.0399 60.1698 41.3499 58.8498C42.5599 58.1898 43.4399 56.9798 43.9899 55.6598C44.5399 54.3398 44.7599 52.7998 44.8699 51.3698C45.0899 48.3998 44.7599 45.4298 43.8799 42.6798C43.5499 41.4698 43.1099 40.3698 42.3399 39.3798C40.5799 36.9598 37.6099 36.1898 34.9699 37.0698C33.7599 37.5098 32.4399 37.6198 31.3399 38.4998C30.3499 39.3798 29.4699 40.6998 29.1399 42.1298Z" fill="#FFF3E9"/>
<path d="M43.9899 42.6794C43.6599 41.4694 43.2199 40.3694 42.4499 39.3794C41.7899 38.4994 41.0199 37.8394 40.1399 37.3994C40.3599 37.6194 40.4699 37.8394 40.6899 38.0594C41.3499 39.0494 41.7899 40.2594 42.2299 41.3594C42.9999 44.2194 43.3299 47.1894 43.2199 50.0494C43.1099 51.4794 42.8899 53.0194 42.3399 54.3394C41.7899 55.6594 40.9099 56.8694 39.6999 57.5294C37.9399 58.5194 35.7399 58.2994 33.8699 57.3094L33.9799 57.4194C36.0699 59.2894 39.1499 60.1694 41.4599 58.8494C42.6699 58.1894 43.5499 56.9794 44.0999 55.6594C44.6499 54.3394 44.8699 52.7994 44.9799 51.3694C45.0899 48.5094 44.7599 45.4294 43.9899 42.6794Z" fill="#FFE7C0"/>
<path d="M32.8798 46.9696C32.6598 48.0696 32.7698 49.2796 33.0998 50.3796C33.4298 51.9196 34.0898 53.3496 35.2998 54.3396C36.3998 55.3296 38.1598 55.5496 39.2598 54.6696C39.5898 54.3396 39.9198 54.0096 40.1398 53.5696C41.2398 51.5896 41.3498 48.9496 40.2498 46.7496C39.8098 45.7596 39.0398 44.7696 38.0498 44.3296C35.9598 43.3396 33.3198 44.6596 32.8798 46.9696Z" fill="#413E49"/>
<path d="M34.0899 48.8398C34.0899 49.1698 34.1999 49.4998 34.5299 49.6098C34.6399 49.7198 34.8599 49.7198 35.0799 49.6098C35.6299 49.4998 36.0699 48.9498 36.2899 48.3998C36.6199 47.7398 36.8399 46.9698 36.8399 46.0898C36.7299 44.8798 35.5199 44.3298 34.7499 45.2098C33.9799 46.0898 33.9799 47.8498 34.0899 48.8398Z" fill="white"/>
<path opacity="0.3" d="M30.24 48.3996C30.35 50.0496 30.9 51.5896 31.89 52.7996C32 52.9096 32.22 53.1296 32.33 52.9096C32.44 52.7996 32.33 52.6896 32.33 52.5796C31.56 49.7196 30.79 46.7496 31.34 43.8896C31.34 43.6696 31.45 43.3396 31.23 43.1196C30.46 43.5596 30.35 44.6596 30.24 45.4296C30.24 46.5296 30.24 47.5196 30.24 48.3996Z" fill="white"/>
<path d="M32.4398 41.4697C33.5398 40.8097 34.8598 40.4797 36.1798 40.3697C37.4998 40.2597 38.8198 40.2597 40.1398 40.5897C41.4598 40.9197 42.6698 41.5797 43.5498 42.4597C43.2198 40.8097 42.0098 39.3797 40.4698 38.6097C38.9298 37.8397 37.1698 37.5097 35.5198 37.6197C34.6398 37.6197 33.8698 37.8397 32.9898 38.1697C31.4498 38.8297 30.2398 40.1497 29.5798 41.5797C29.2498 42.2397 29.0298 43.0097 28.9198 43.6697C28.8098 44.1097 28.5898 45.2097 29.0298 45.5397C29.3598 45.8697 29.5798 44.7697 29.7998 44.4397C30.1298 43.8897 30.4598 43.2297 30.7898 42.7897C31.2298 42.3497 31.7798 41.7997 32.4398 41.4697Z" fill="#FFE7C0"/>
<path d="M30.0199 42.6797C31.0099 41.0297 32.2199 40.4797 33.5399 40.0397C34.0899 39.9297 34.6399 39.8197 35.1899 39.7097C36.9499 39.4897 38.7099 39.4897 40.4699 39.8197C41.5699 40.0397 43.2199 41.0297 43.8799 42.0197C43.4399 41.2497 42.7799 39.5997 42.3399 38.7197C42.2299 38.3897 42.0099 38.0597 41.7899 37.8397C41.5699 37.5097 41.2399 37.3997 40.9099 37.1797C40.2499 36.7397 39.4799 36.4097 38.7099 36.1897C37.9399 35.9697 37.0599 36.0797 36.2899 36.0797C34.1999 36.2997 32.1099 36.8497 30.5699 38.1697C29.4699 39.1597 28.8099 40.4797 28.5899 41.9097C28.3699 43.1197 28.2599 45.8697 28.8099 47.0797C29.0299 46.9697 29.3599 43.8897 30.0199 42.6797Z" fill="#3B82FF"/>
<path opacity="0.34" d="M29.7998 39.4895C29.0298 40.5895 28.8098 42.0195 29.0298 43.3395C29.1398 42.0195 29.7998 40.8095 30.6798 39.9295C31.5598 38.9395 32.6598 38.2795 33.8698 37.8395C34.4198 37.6195 34.9698 37.5095 35.4098 37.0695C35.4098 37.0695 35.5198 36.9595 35.5198 36.8495C35.5198 36.6295 35.2998 36.6295 35.0798 36.5195C33.0998 36.5195 30.8998 37.8395 29.7998 39.4895Z" fill="white"/>
<path d="M68.96 37.8398C67.42 40.0398 66.87 42.8998 66.65 45.6498C66.43 48.6198 66.54 51.6998 67.75 54.3398C68.96 56.9798 71.71 58.9598 74.46 58.5198C75.89 58.2998 77.21 57.5298 78.2 56.4298C79.19 55.3298 80.07 54.0098 80.62 52.6898C81.94 49.9398 82.71 46.9698 83.04 43.9998C83.15 42.7898 83.15 41.4698 82.82 40.2598C82.05 37.2898 79.41 35.4198 76.55 35.3098C75.23 35.3098 73.91 34.9798 72.59 35.3098C71.27 35.6398 69.84 36.6298 68.96 37.8398Z" fill="#3B82FF"/>
<path d="M68.9601 39.4897C67.4201 41.5797 66.9801 44.4397 66.7601 47.0797C66.5401 49.9397 66.6501 52.9097 67.8601 55.4397C69.0701 57.9697 71.6001 59.9497 74.3501 59.5097C75.7801 59.2897 76.9901 58.5197 77.9801 57.5297C78.9701 56.5397 79.7401 55.2197 80.4001 53.8997C81.6101 51.2597 82.4901 48.3997 82.7101 45.4297C82.8201 44.2197 82.8201 42.8997 82.6001 41.7997C81.9401 38.9397 79.3001 37.0697 76.5501 36.9597C75.2301 36.9597 74.0201 36.6297 72.7001 36.9597C71.0501 37.2897 69.8401 38.1697 68.9601 39.4897Z" fill="#FFF3E9"/>
<path d="M82.6 45.3199C82.71 44.1099 82.71 42.7899 82.49 41.6899C82.27 40.5899 81.72 39.7099 81.06 38.9399C81.17 39.1599 81.28 39.4899 81.28 39.7099C81.61 40.9199 81.5 42.1299 81.39 43.3399C81.17 46.3099 80.29 49.1699 79.08 51.8099C78.42 53.1299 77.65 54.4499 76.66 55.4399C75.67 56.4299 74.35 57.3099 73.03 57.4199C71.05 57.7499 69.07 56.6499 67.75 55.1099C67.75 55.2199 67.75 55.2199 67.86 55.3299C69.07 57.8599 71.6 59.8399 74.35 59.3999C75.78 59.1799 76.99 58.4099 77.98 57.4199C78.97 56.4299 79.74 55.1099 80.4 53.7899C81.5 51.1499 82.27 48.2899 82.6 45.3199Z" fill="#FFE7C0"/>
<path d="M70.7199 45.3199C70.0599 46.3099 69.8399 47.4099 69.7299 48.6199C69.5099 50.1599 69.6199 51.8099 70.2799 53.1299C70.9399 54.4499 72.4799 55.3299 73.9099 54.8899C74.3499 54.7799 74.7899 54.4499 75.1199 54.2299C76.8799 52.7999 77.8699 50.3799 77.7599 47.9599C77.6499 46.8599 77.3199 45.6499 76.5499 44.8799C74.8999 43.1199 71.9299 43.3399 70.7199 45.3199Z" fill="#413E49"/>
<path d="M71.1599 47.5198C71.0499 47.8498 71.0499 48.1798 71.2699 48.3998C71.3799 48.5098 71.5999 48.6198 71.7099 48.6198C72.2599 48.7298 72.8099 48.3998 73.3599 47.9598C73.9099 47.4098 74.4599 46.7498 74.6799 46.0898C75.0099 44.8798 74.1299 43.9998 73.0299 44.4398C71.9299 44.8798 71.3799 46.5298 71.1599 47.5198Z" fill="white"/>
<path opacity="0.3" d="M67.7499 45.7596C67.1999 47.2996 67.1999 48.9496 67.6399 50.4896C67.6399 50.7096 67.8599 50.9296 67.9699 50.8196C68.0799 50.8196 68.0799 50.7096 68.0799 50.5996C68.4099 47.7396 68.7399 44.6596 70.3899 42.2396C70.4999 42.0196 70.7199 41.7996 70.6099 41.5796C69.7299 41.6896 69.2899 42.6796 68.8499 43.3396C68.4099 43.9996 67.9699 44.8796 67.7499 45.7596Z" fill="white"/>
<path d="M72.2601 40.0397C73.5801 39.8197 74.9001 40.0397 76.1101 40.4797C77.3201 40.8097 78.6401 41.3597 79.6301 42.1297C80.7301 42.8997 81.6101 43.8897 82.1601 45.0997C82.3801 43.4497 81.8301 41.6897 80.7301 40.3697C79.6301 39.0497 78.0901 38.1697 76.4401 37.6197C75.6701 37.3997 74.7901 37.1797 73.9101 37.1797C72.2601 37.1797 70.6101 37.9497 69.5101 39.1597C68.9601 39.7097 68.5201 40.2597 68.1901 40.9197C67.9701 41.2497 67.3101 42.2397 67.5301 42.6797C67.7501 43.1197 68.4101 42.1297 68.6301 41.9097C69.0701 41.4697 69.6201 41.0297 70.1701 40.6997C70.8301 40.3697 71.4901 40.1497 72.2601 40.0397Z" fill="#FFE7C0"/>
<path d="M69.62 40.2598C71.16 39.0498 72.48 38.9398 73.8 39.0498C74.35 39.0498 74.9 39.1598 75.45 39.3798C77.21 39.8198 78.86 40.4798 80.4 41.3598C81.39 41.9098 82.49 43.4498 82.82 44.6598C82.71 43.7798 82.71 41.9098 82.6 41.0298C82.6 40.6998 82.49 40.3698 82.38 40.0398C82.27 39.7098 82.05 39.3798 81.72 39.1598C81.17 38.4998 80.73 37.9498 80.07 37.5098C79.41 37.0698 78.64 36.7398 77.87 36.5198C75.89 35.9698 73.69 35.6398 71.71 36.4098C70.39 36.9598 69.29 37.9498 68.52 39.0498C67.86 40.0398 66.76 42.6798 66.76 43.8898C67.09 43.8898 68.52 41.1398 69.62 40.2598Z" fill="#3B82FF"/>
<path opacity="0.34" d="M70.5 37.29C69.4 38.06 68.63 39.27 68.3 40.59C68.85 39.49 69.95 38.61 71.05 38.06C72.26 37.51 73.47 37.29 74.7901 37.29C75.34 37.29 76.0001 37.4 76.4401 37.07C76.55 37.07 76.55 36.96 76.55 36.96C76.66 36.85 76.4401 36.63 76.3301 36.52C74.6801 35.64 72.15 36.08 70.5 37.29Z" fill="white"/>
</svg>
