<?xml version="1.0"?>
<svg width="14.999999999999998" height="14" xmlns="http://www.w3.org/2000/svg" xmlns:svg="http://www.w3.org/2000/svg">
 <g class="layer">
  <title>Layer 1</title>
  <path d="m14.46,5.45c-0.03,-0.08 -0.1,-0.15 -0.19,-0.17l-4.22,-1.01l-2.3,-3.57c-0.05,-0.07 -0.13,-0.12 -0.22,-0.12c-0.09,0 -0.18,0.05 -0.22,0.12l-2.3,3.57l-4.22,1.01c-0.09,0.03 -0.17,0.09 -0.19,0.17c-0.03,0.08 -0.01,0.17 0.06,0.24l2.8,3.22l-0.31,4.2c-0.01,0.09 0.03,0.17 0.1,0.23c0.07,0.05 0.18,0.06 0.26,0.03l4.03,-1.58l4.03,1.58c0.04,0.01 0.06,0.02 0.1,0.02c0.06,0 0.11,-0.02 0.16,-0.05c0.07,-0.05 0.11,-0.14 0.1,-0.23l-0.31,-4.2l2.8,-3.22c0.06,-0.06 0.08,-0.16 0.06,-0.24z" fill="#ffffff" id="svg_1" stroke="#ffb342"/>
 </g>
</svg>