<svg width="15" height="14" viewBox="0 0 15 14" fill="none" xmlns="http://www.w3.org/2000/svg">
<path d="M14.9861 5.32709C14.9556 5.23528 14.8788 5.16526 14.7831 5.14221L10.2228 4.03878L7.74226 0.13178C7.69018 0.0497493 7.59859 0 7.5 0C7.40141 0 7.30982 0.0497493 7.25774 0.13178L4.77722 4.03878L0.216939 5.14221C0.121205 5.16526 0.0444468 5.23528 0.0139146 5.32709C-0.0164749 5.4189 0.00364213 5.5198 0.0671319 5.59358L3.09438 9.11167L2.75653 13.7005C2.7494 13.7968 2.79377 13.8898 2.87338 13.9467C2.95356 14.0035 3.05757 14.0158 3.1486 13.9794L7.5 12.2467L11.8514 13.9794C11.8859 13.9933 11.9225 14 11.9588 14C12.0182 14 12.077 13.9818 12.1266 13.9466C12.2064 13.8898 12.2506 13.7968 12.2435 13.7003L11.9056 9.11153L14.9329 5.59344C14.9964 5.5198 15.0165 5.41904 14.9861 5.32709Z" fill="#FFB342"/>
</svg>
