<svg width="50" height="50" viewBox="0 0 50 50" fill="none" xmlns="http://www.w3.org/2000/svg">
<g id="avatar-admin">
<circle id="Ellipse 5" cx="25" cy="25" r="24.5" fill="white" stroke="#FFBC57"/>
<g id="sign">
<path id="Vector" d="M10.5196 22.0052V34.8484C10.5196 35.1987 10.285 35.4322 9.93302 35.4322H7.5866C7.23464 35.4322 7 35.1987 7 34.8484V22.0052C7 21.6549 7.23464 21.4214 7.5866 21.4214H9.93302C10.285 21.4214 10.5196 21.7133 10.5196 22.0052ZM42.4134 21.4214H40.067C39.715 21.4214 39.4804 21.6549 39.4804 22.0052V34.8484C39.4804 35.1987 39.715 35.4322 40.067 35.4322H42.4134C42.7654 35.4322 43 35.1987 43 34.8484V22.0052C43 21.7133 42.7654 21.4214 42.4134 21.4214Z" fill="#FFBC57"/>
<path id="Vector_2" d="M38.3077 25.5081V29.0108C38.3077 29.3611 38.0731 29.5946 37.7211 29.5946H12.28C11.928 29.5946 11.6934 29.3611 11.6934 29.0108V25.5081C11.6934 25.1578 11.928 24.9243 12.28 24.9243H37.7211C38.0731 24.9243 38.3077 25.1578 38.3077 25.5081ZM12.28 23.7568H19.1961C19.548 23.7568 19.7827 23.5232 19.7827 23.173V15.5838C19.7827 15.2335 19.548 15 19.1961 15H12.28C11.928 15 11.6934 15.2335 11.6934 15.5838V23.173C11.6934 23.5232 11.928 23.7568 12.28 23.7568ZM21.5425 23.7568H28.4586C28.8106 23.7568 29.0452 23.5232 29.0452 23.173V15.5838C29.0452 15.2335 28.8106 15 28.4586 15H21.5425C21.1905 15 20.9559 15.2335 20.9559 15.5838V23.173C20.9559 23.5232 21.1905 23.7568 21.5425 23.7568ZM37.7211 15H30.805C30.453 15 30.2184 15.2335 30.2184 15.5838V23.173C30.2184 23.5232 30.453 23.7568 30.805 23.7568H37.7211C38.0731 23.7568 38.3077 23.5232 38.3077 23.173V15.5838C38.3077 15.2335 38.0731 15 37.7211 15ZM37.7211 30.7622H12.28C11.928 30.7622 11.6934 30.9957 11.6934 31.3459V34.8486C11.6934 35.1989 11.928 35.4324 12.28 35.4324H15.6764C16.0284 35.4324 16.2631 35.1989 16.2631 34.8486V34.2649H33.738V34.8486C33.738 35.1989 33.9727 35.4324 34.3246 35.4324H37.7211C38.0731 35.4324 38.3077 35.1989 38.3077 34.8486V31.3459C38.3077 30.9957 38.0731 30.7622 37.7211 30.7622Z" fill="#FFBC57"/>
</g>
</g>
</svg>
