<svg width="159" height="30" viewBox="0 0 159 30" fill="none" xmlns="http://www.w3.org/2000/svg">
<path d="M3.89712 3.25238C6.0513 1.2905 8.97639 0.145372 11.941 0.00293999C12.9557 0.00293999 13.9733 0.008715 14.988 0C14.9362 1.03766 14.988 2.07816 14.9575 3.11577C14.8143 5.43517 13.9154 7.70222 12.4011 9.52166C10.4328 11.969 7.42245 13.6111 4.22619 14.0355C2.83069 14.2505 1.41382 14.1139 0.00923508 14.1517C0.0335951 13.0094 -0.0425826 11.8644 0.0518649 10.725C0.326125 7.89989 1.72467 5.19393 3.89712 3.25238Z" fill="#81818B"/>
<path d="M15.9275 0C17.0153 0.011655 18.103 -0.0057746 19.1938 0.0058279C21.9087 0.188895 24.5869 1.18293 26.6312 2.90656C28.886 4.75214 30.431 7.39126 30.8269 10.2106C31.0007 11.5184 30.8909 12.8409 30.9581 14.1546C30.0074 14.1517 29.0597 14.1489 28.109 14.1546C25.7722 14.0936 23.4748 13.3728 21.5186 12.1579C20.6167 11.5417 19.6905 10.9169 19.0141 10.0623C17.5302 8.48117 16.5217 6.49604 16.1408 4.40339C15.8544 2.95008 15.9702 1.4678 15.9275 0Z" fill="#81818B"/>
<path d="M0.0112604 14.9858C0.977155 15.0381 1.9461 14.9422 2.90889 15.044C7.0314 15.1282 11.0321 17.3372 13.1679 20.7C14.3928 22.5834 15.0509 24.8157 14.9657 27.0331C14.9626 27.7602 14.9748 28.4837 14.9534 29.2077C13.4239 29.1636 11.8791 29.2827 10.3647 29.0008C7.00095 28.4606 3.90834 26.5507 2.04658 23.8245C0.635853 21.8422 -0.0679623 19.4211 0.00517018 17.0291C0.00517018 16.346 0.00517044 15.6659 0.0112604 14.9858Z" fill="#81818B"/>
<path d="M25.8098 15.2938C27.4674 14.9421 29.1763 15.0002 30.8615 15.0002L30.935 15.07C30.8983 16.5901 31.0232 18.1276 30.7035 19.6302C30.0299 23.0018 27.69 26.0127 24.5424 27.6665C22.5832 28.7073 20.3346 29.2187 18.0951 29.1956C17.379 29.1987 16.6599 29.184 15.9439 29.204C15.9439 27.9456 15.8891 26.6816 16.0384 25.4285C16.3857 22.3972 18.1042 19.575 20.5753 17.6684C22.1048 16.5174 23.9025 15.6832 25.8098 15.2938Z" fill="#81818B"/>
<path d="M43.4432 23.5779C43.4432 24.0896 43.2573 24.5224 42.8867 24.8768C42.5355 25.2115 42.0918 25.3788 41.5558 25.3788C41.0397 25.3788 40.6066 25.2115 40.2559 24.8768C39.9052 24.5224 39.7299 24.0896 39.7299 23.5779V5.33432C39.7299 4.8226 39.9052 4.3995 40.2559 4.06497C40.6271 3.7107 41.0812 3.53357 41.6178 3.53357C42.1538 3.53357 42.5869 3.7107 42.9171 4.06497C43.2678 4.3995 43.4432 4.8226 43.4432 5.33432V23.5779Z" fill="#81818B"/>
<path d="M58.349 9.58521C58.8851 9.58521 59.3287 9.76229 59.6799 10.1166C60.0301 10.4511 60.2054 10.8742 60.2054 11.3859V18.8841C60.2054 20.9702 59.597 22.6233 58.38 23.8435C57.1625 25.0637 55.409 25.6736 53.1185 25.6736C50.8289 25.6736 49.0749 25.0637 47.858 23.8435C46.6615 22.6233 46.063 20.9702 46.063 18.8841V11.3859C46.063 10.8742 46.2383 10.4511 46.589 10.1166C46.9397 9.76229 47.3834 9.58521 47.9199 9.58521C48.4565 9.58521 48.8996 9.76229 49.2503 10.1166C49.6015 10.4511 49.7768 10.8742 49.7768 11.3859V18.8841C49.7768 20.0846 50.0556 20.98 50.6121 21.5704C51.1691 22.1412 52.0049 22.4265 53.1185 22.4265C54.254 22.4265 55.0993 22.1412 55.6568 21.5704C56.2133 20.98 56.4921 20.0846 56.4921 18.8841V11.3859C56.4921 10.8742 56.6675 10.4511 57.0182 10.1166C57.3689 9.76229 57.8125 9.58521 58.349 9.58521Z" fill="#81818B"/>
<path d="M71.3748 9.29004C73.0254 9.29004 74.2424 9.67376 75.0267 10.4413C75.8105 11.1892 76.3266 12.1633 76.5739 13.3638L76.0478 13.0981L76.2956 12.6258C76.5429 12.1731 76.9246 11.691 77.4407 11.1793C77.9562 10.648 78.5752 10.2052 79.2971 9.8509C80.0399 9.47694 80.8652 9.29004 81.773 9.29004C83.2587 9.29004 84.3827 9.59506 85.1461 10.2051C85.9304 10.8152 86.4665 11.632 86.7552 12.6553C87.0445 13.659 87.1889 14.7808 87.1889 16.0206V23.5779C87.1889 24.0896 87.0135 24.5224 86.6623 24.8768C86.3116 25.2115 85.8685 25.3788 85.3319 25.3788C84.7959 25.3788 84.3518 25.2115 84.0011 24.8768C83.6504 24.5224 83.475 24.0896 83.475 23.5779V16.0206C83.475 15.3712 83.3926 14.7907 83.2277 14.2789C83.0624 13.7476 82.7631 13.3245 82.33 13.0096C81.8969 12.6947 81.2779 12.5372 80.4736 12.5372C79.6892 12.5372 79.0188 12.6947 78.4618 13.0096C77.9042 13.3245 77.4816 13.7476 77.1929 14.2789C76.9246 14.7907 76.7902 15.3712 76.7902 16.0206V23.5779C76.7902 24.0896 76.6148 24.5224 76.2647 24.8768C75.914 25.2115 75.4698 25.3788 74.9338 25.3788C74.3972 25.3788 73.9536 25.2115 73.6034 24.8768C73.2522 24.5224 73.0769 24.0896 73.0769 23.5779V16.0206C73.0769 15.3712 72.9944 14.7907 72.8291 14.2789C72.6642 13.7476 72.365 13.3245 71.9318 13.0096C71.4987 12.6947 70.8792 12.5372 70.0749 12.5372C69.2911 12.5372 68.6207 12.6947 68.0631 13.0096C67.5066 13.3245 67.0835 13.7476 66.7947 14.2789C66.5264 14.7907 66.3926 15.3712 66.3926 16.0206V23.5779C66.3926 24.0896 66.2172 24.5224 65.8665 24.8768C65.5153 25.2115 65.0722 25.3788 64.5356 25.3788C63.9991 25.3788 63.556 25.2115 63.2048 24.8768C62.8541 24.5224 62.6787 24.0896 62.6787 23.5779V11.3859C62.6787 10.8743 62.8541 10.4511 63.2048 10.1166C63.556 9.76233 63.9991 9.58525 64.5356 9.58525C65.0722 9.58525 65.5153 9.76233 65.8665 10.1166C66.2172 10.4511 66.3926 10.8743 66.3926 11.3859V12.6553L65.9279 12.5668C66.1138 12.2322 66.3721 11.8779 66.7018 11.504C67.032 11.1104 67.4342 10.7463 67.9088 10.4118C68.3834 10.0772 68.9094 9.81152 69.4869 9.6147C70.0649 9.39824 70.6944 9.29004 71.3748 9.29004Z" fill="#81818B"/>
<path d="M93.1576 23.5779C93.1576 24.0896 92.9822 24.5224 92.631 24.8768C92.2808 25.2115 91.8372 25.3788 91.3007 25.3788C90.7646 25.3788 90.3205 25.2115 89.9698 24.8768C89.6196 24.5224 89.4442 24.0896 89.4442 23.5779V11.3859C89.4442 10.8743 89.6196 10.4511 89.9698 10.1166C90.3205 9.76233 90.7646 9.58525 91.3007 9.58525C91.8372 9.58525 92.2808 9.76233 92.631 10.1166C92.9822 10.4511 93.1576 10.8743 93.1576 11.3859V23.5779ZM91.2697 7.66637C90.5683 7.66637 90.0732 7.55817 89.7839 7.34166C89.4957 7.12521 89.3513 6.74143 89.3513 6.19039V5.62948C89.3513 5.05881 89.5062 4.67498 89.8149 4.47821C90.1451 4.2617 90.6407 4.15344 91.3007 4.15344C92.0231 4.15344 92.5286 4.2617 92.8169 4.47821C93.1061 4.69466 93.2505 5.07844 93.2505 5.62948V6.19039C93.2505 6.76112 93.0956 7.15471 92.7859 7.37117C92.4772 7.56799 91.9711 7.66637 91.2697 7.66637Z" fill="#81818B"/>
<path d="M104.278 9.29004C105.804 9.29004 106.96 9.59506 107.744 10.2051C108.548 10.8152 109.095 11.632 109.384 12.6553C109.694 13.659 109.848 14.7808 109.848 16.0206V23.5779C109.848 24.0896 109.673 24.5224 109.322 24.8768C108.971 25.2115 108.527 25.3788 107.991 25.3788C107.455 25.3788 107.011 25.2115 106.661 24.8768C106.309 24.5224 106.134 24.0896 106.134 23.5779V16.0206C106.134 15.3712 106.042 14.7907 105.856 14.2789C105.691 13.7476 105.381 13.3245 104.927 13.0096C104.474 12.6947 103.823 12.5372 102.978 12.5372C102.152 12.5372 101.451 12.6947 100.874 13.0096C100.316 13.3245 99.8834 13.7476 99.5736 14.2789C99.2849 14.7907 99.14 15.3712 99.14 16.0206V23.5779C99.14 24.0896 98.9651 24.5224 98.6144 24.8768C98.2637 25.2115 97.8196 25.3788 97.2836 25.3788C96.747 25.3788 96.3034 25.2115 95.9532 24.8768C95.602 24.5224 95.4266 24.0896 95.4266 23.5779V11.3859C95.4266 10.8743 95.602 10.4511 95.9532 10.1166C96.3034 9.76233 96.747 9.58525 97.2836 9.58525C97.8196 9.58525 98.2637 9.76233 98.6144 10.1166C98.9651 10.4511 99.14 10.8743 99.14 11.3859V12.6553L98.6764 12.5668C98.8622 12.2322 99.13 11.8779 99.4807 11.504C99.8314 11.1104 100.245 10.7463 100.719 10.4118C101.193 10.0772 101.73 9.81152 102.328 9.6147C102.926 9.39824 103.576 9.29004 104.278 9.29004Z" fill="#81818B"/>
<path d="M128.221 17.4966C128.221 19.1104 127.839 20.5373 127.076 21.7771C126.333 22.9973 125.323 23.9518 124.043 24.6405C122.785 25.3296 121.372 25.6736 119.804 25.6736C118.236 25.6736 116.812 25.3296 115.533 24.6405C114.275 23.9518 113.264 22.9973 112.5 21.7771C111.758 20.5373 111.386 19.1104 111.386 17.4966C111.386 15.8829 111.758 14.4659 112.5 13.2457C113.264 12.0059 114.275 11.0415 115.533 10.3527C116.812 9.64426 118.236 9.29004 119.804 9.29004C121.372 9.29004 122.785 9.64426 124.043 10.3527C125.323 11.0415 126.333 12.0059 127.076 13.2457C127.839 14.4659 128.221 15.8829 128.221 17.4966ZM124.508 17.4966C124.508 16.493 124.291 15.6271 123.857 14.8989C123.445 14.151 122.878 13.5705 122.155 13.1572C121.454 12.7439 120.67 12.5372 119.804 12.5372C118.937 12.5372 118.143 12.7439 117.421 13.1572C116.719 13.5705 116.151 14.151 115.719 14.8989C115.306 15.6271 115.099 16.493 115.099 17.4966C115.099 18.4807 115.306 19.3466 115.719 20.0945C116.151 20.8226 116.719 21.3933 117.421 21.8066C118.143 22.2199 118.937 22.4265 119.804 22.4265C120.67 22.4265 121.454 22.2199 122.155 21.8066C122.878 21.3933 123.445 20.8226 123.857 20.0945C124.291 19.3466 124.508 18.4807 124.508 17.4966Z" fill="#81818B"/>
<path d="M142.062 9.58521C142.599 9.58521 143.043 9.76229 143.393 10.1166C143.744 10.4511 143.919 10.8742 143.919 11.3859V18.8841C143.919 20.9702 143.311 22.6233 142.093 23.8435C140.876 25.0637 139.123 25.6736 136.832 25.6736C134.542 25.6736 132.789 25.0637 131.571 23.8435C130.375 22.6233 129.776 20.9702 129.776 18.8841V11.3859C129.776 10.8742 129.952 10.4511 130.303 10.1166C130.654 9.76229 131.097 9.58521 131.633 9.58521C132.17 9.58521 132.613 9.76229 132.964 10.1166C133.315 10.4511 133.49 10.8742 133.49 11.3859V18.8841C133.49 20.0846 133.768 20.98 134.326 21.5704C134.883 22.1412 135.718 22.4265 136.832 22.4265C137.967 22.4265 138.813 22.1412 139.37 21.5704C139.927 20.98 140.206 20.0846 140.206 18.8841V11.3859C140.206 10.8742 140.381 10.4511 140.732 10.1166C141.082 9.76229 141.526 9.58521 142.062 9.58521Z" fill="#81818B"/>
<path d="M145.433 22.9284C145.227 22.6529 145.134 22.2986 145.155 21.8657C145.175 21.4327 145.443 21.0588 145.959 20.7439C146.289 20.5471 146.64 20.4684 147.012 20.5078C147.382 20.5275 147.743 20.7045 148.095 21.0391C148.693 21.6098 149.322 22.0526 149.983 22.3675C150.642 22.6824 151.468 22.8398 152.458 22.8398C152.768 22.8201 153.107 22.7808 153.479 22.7217C153.851 22.643 154.17 22.4856 154.438 22.2495C154.727 21.9936 154.872 21.6098 154.872 21.0981C154.872 20.6652 154.717 20.3208 154.407 20.0649C154.098 19.8091 153.685 19.5926 153.169 19.4155C152.675 19.2384 152.117 19.0711 151.499 18.9137C150.859 18.7365 150.198 18.5398 149.518 18.3232C148.857 18.1068 148.249 17.8313 147.692 17.4966C147.135 17.1424 146.681 16.6799 146.33 16.1092C145.98 15.5385 145.805 14.8201 145.805 13.9542C145.805 12.9702 146.093 12.1338 146.671 11.445C147.249 10.7562 147.991 10.2249 148.899 9.8509C149.828 9.47694 150.797 9.29004 151.808 9.29004C152.447 9.29004 153.118 9.36874 153.82 9.52618C154.521 9.66394 155.192 9.90009 155.831 10.2347C156.47 10.5495 157.007 10.9727 157.44 11.504C157.667 11.7992 157.801 12.1534 157.843 12.5668C157.884 12.9801 157.688 13.354 157.254 13.6885C156.946 13.9247 156.584 14.0329 156.171 14.0133C155.759 13.9739 155.418 13.8362 155.15 13.6C154.799 13.167 154.325 12.8226 153.727 12.5668C153.149 12.3109 152.478 12.183 151.715 12.183C151.406 12.183 151.066 12.2224 150.694 12.3011C150.343 12.3601 150.034 12.5078 149.766 12.7439C149.497 12.9604 149.363 13.3146 149.363 13.8066C149.363 14.2593 149.518 14.6234 149.828 14.8989C150.137 15.1547 150.55 15.3712 151.066 15.5484C151.602 15.7058 152.169 15.8632 152.768 16.0206C153.386 16.1781 154.016 16.365 154.655 16.5815C155.295 16.7981 155.882 17.0833 156.419 17.4376C156.956 17.7919 157.389 18.2544 157.719 18.8251C158.049 19.3761 158.214 20.0846 158.214 20.9506C158.214 21.9542 157.905 22.8104 157.285 23.5188C156.667 24.2273 155.893 24.7685 154.965 25.1425C154.036 25.4969 153.087 25.6736 152.117 25.6736C150.9 25.6736 149.683 25.4772 148.466 25.0835C147.249 24.67 146.237 23.9518 145.433 22.9284Z" fill="#81818B"/>
</svg>
