<svg width="48" height="32" viewBox="0 0 48 32" fill="none" xmlns="http://www.w3.org/2000/svg">
<rect x="0.730781" y="0.887946" width="46.8384" height="30.2545" rx="5.49062" fill="white"/>
<rect x="0.730781" y="0.887946" width="46.8384" height="30.2545" rx="5.49062" stroke="#D6DCE5" stroke-width="0.224107"/>
<path d="M15.9198 12.0817C16.2308 11.6927 16.4419 11.1704 16.3862 10.6367C15.931 10.6594 15.3754 10.9371 15.0538 11.3264C14.765 11.6597 14.5094 12.2039 14.576 12.7152C15.0871 12.7595 15.5976 12.4598 15.9198 12.0817Z" fill="#000008"/>
<path d="M16.3804 12.8151C15.6383 12.7709 15.0073 13.2363 14.6528 13.2363C14.2982 13.2363 13.7555 12.8373 13.1685 12.8481C12.4045 12.8593 11.6956 13.2913 11.3079 13.9784C10.5104 15.3528 11.0974 17.3916 11.8729 18.511C12.2495 19.0648 12.7033 19.6746 13.3014 19.6527C13.8664 19.6305 14.0879 19.2868 14.7747 19.2868C15.461 19.2868 15.6605 19.6527 16.2586 19.6416C16.8789 19.6305 17.2666 19.0875 17.6432 18.5332C18.0752 17.9019 18.2521 17.2923 18.2632 17.2588C18.2521 17.2477 17.0672 16.7932 17.0562 15.4302C17.045 14.2889 17.9865 13.746 18.0308 13.7123C17.4991 12.926 16.6684 12.8373 16.3804 12.8151Z" fill="#000008"/>
<path d="M22.8425 11.2705C24.4555 11.2705 25.5788 12.3824 25.5788 14.0013C25.5788 15.6259 24.4324 16.7435 22.802 16.7435H21.0161V19.5837H19.7257V11.2705L22.8425 11.2705ZM21.0161 15.6604H22.4967C23.6201 15.6604 24.2595 15.0556 24.2595 14.007C24.2595 12.9586 23.6201 12.3594 22.5024 12.3594H21.0161V15.6604Z" fill="#000008"/>
<path d="M25.9159 17.8612C25.9159 16.8011 26.7282 16.1501 28.1686 16.0695L29.8276 15.9716V15.505C29.8276 14.8309 29.3725 14.4276 28.6122 14.4276C27.8919 14.4276 27.4425 14.7732 27.3331 15.3148H26.1579C26.227 14.2201 27.1602 13.4136 28.6582 13.4136C30.1272 13.4136 31.0662 14.1914 31.0662 15.4069V19.5837H29.8736V18.5871H29.845C29.4936 19.2611 28.7273 19.6874 27.9323 19.6874C26.7455 19.6874 25.9159 18.95 25.9159 17.8612ZM29.8276 17.3139V16.8358L28.3355 16.9279C27.5923 16.9798 27.1718 17.3081 27.1718 17.8266C27.1718 18.3566 27.6096 18.7023 28.2779 18.7023C29.1478 18.7023 29.8276 18.1031 29.8276 17.3139Z" fill="#000008"/>
<path d="M32.1921 21.8133V20.8051C32.2841 20.8281 32.4915 20.8281 32.5952 20.8281C33.1713 20.8281 33.4824 20.5861 33.6725 19.964C33.6725 19.9524 33.782 19.5953 33.782 19.5895L31.5929 13.5231H32.9408L34.4734 18.4546H34.4963L36.0289 13.5231H37.3424L35.0724 19.9005C34.5541 21.3697 33.9549 21.8421 32.699 21.8421C32.5952 21.8421 32.2841 21.8305 32.1921 21.8133Z" fill="#000008"/>
</svg>
