<svg width="14" height="14" viewBox="0 0 14 14" fill="none" xmlns="http://www.w3.org/2000/svg">
<path d="M13.2883 11.9617C13.4644 12.1378 13.5634 12.3767 13.5634 12.6258C13.5634 12.8749 13.4644 13.1137 13.2883 13.2898C13.1122 13.466 12.8733 13.5649 12.6242 13.5649C12.3752 13.5649 12.1363 13.466 11.9602 13.2898L7.00003 8.32812L2.03831 13.2883C1.86219 13.4644 1.62332 13.5633 1.37425 13.5633C1.12517 13.5633 0.886304 13.4644 0.710183 13.2883C0.534063 13.1122 0.43512 12.8733 0.43512 12.6242C0.43512 12.3751 0.534063 12.1363 0.710183 11.9602L5.6719 7L0.711746 2.03828C0.535625 1.86216 0.436682 1.62329 0.436682 1.37422C0.436682 1.12515 0.535625 0.886276 0.711746 0.710156C0.887866 0.534036 1.12674 0.435092 1.37581 0.435092C1.62488 0.435092 1.86375 0.534036 2.03987 0.710156L7.00003 5.67187L11.9617 0.709374C12.1379 0.533254 12.3767 0.434311 12.6258 0.434311C12.8749 0.434311 13.1138 0.533254 13.2899 0.709374C13.466 0.885495 13.5649 1.12437 13.5649 1.37344C13.5649 1.62251 13.466 1.86138 13.2899 2.0375L8.32815 7L13.2883 11.9617Z" fill="white"/>
</svg>
