<svg width="48" height="32" viewBox="0 0 48 32" fill="none" xmlns="http://www.w3.org/2000/svg">
<rect x="0.3451" y="0.887946" width="46.8384" height="30.2545" rx="5.49062" fill="white"/>
<rect x="0.3451" y="0.887946" width="46.8384" height="30.2545" rx="5.49062" stroke="#D6DCE5" stroke-width="0.224107"/>
<path d="M22.751 19.6143H21.7026V11.4561H24.482C25.1865 11.4561 25.7871 11.6909 26.2786 12.1605C26.781 12.6301 27.0322 13.2035 27.0322 13.8806C27.0322 14.5741 26.781 15.1475 26.2786 15.6116C25.7926 16.0758 25.1919 16.3051 24.482 16.3051H22.751V19.6143ZM22.751 12.4608V15.3058H24.5039C24.9189 15.3058 25.2684 15.1639 25.5414 14.8854C25.8199 14.6069 25.9619 14.2683 25.9619 13.8861C25.9619 13.5093 25.8199 13.1762 25.5414 12.8977C25.2684 12.6083 24.9244 12.4663 24.5039 12.4663H22.751V12.4608Z" fill="#3C4043"/>
<path d="M29.7733 13.8478C30.5487 13.8478 31.1603 14.0553 31.6081 14.4703C32.0559 14.8854 32.2797 15.4533 32.2797 16.1741V19.6143H31.2804V18.8389H31.2368C30.8054 19.4778 30.2265 19.7945 29.5057 19.7945C28.8887 19.7945 28.3754 19.6143 27.9604 19.2484C27.5454 18.8826 27.3379 18.4293 27.3379 17.8833C27.3379 17.3044 27.5563 16.8457 27.9931 16.5072C28.43 16.1632 29.0143 15.9939 29.7405 15.9939C30.3631 15.9939 30.8764 16.1085 31.275 16.3379V16.0976C31.275 15.7318 31.133 15.426 30.8436 15.1693C30.5542 14.9127 30.2156 14.7871 29.8279 14.7871C29.2436 14.7871 28.7795 15.0328 28.4409 15.5297L27.5181 14.9509C28.0259 14.2137 28.7795 13.8478 29.7733 13.8478ZM28.4191 17.8996C28.4191 18.1727 28.5337 18.402 28.7685 18.5822C28.9979 18.7624 29.2709 18.8553 29.5822 18.8553C30.0245 18.8553 30.4177 18.6914 30.7617 18.3638C31.1057 18.0362 31.2804 17.6539 31.2804 17.2116C30.9528 16.955 30.4996 16.8239 29.9153 16.8239C29.4894 16.8239 29.1344 16.9276 28.8505 17.1297C28.561 17.3427 28.4191 17.5993 28.4191 17.8996Z" fill="#3C4043"/>
<path d="M37.9807 14.0281L34.4859 22.0662H33.4047L34.7043 19.2539L32.3999 14.0281H33.5412L35.2012 18.0362H35.2231L36.8394 14.0281H37.9807Z" fill="#3C4043"/>
<path d="M18.5807 15.6444C18.5807 15.3026 18.5501 14.9755 18.4933 14.6609H14.0986V16.4629L16.6296 16.4635C16.5269 17.0631 16.1965 17.5742 15.6903 17.9149V19.0841H17.1969C18.0766 18.2699 18.5807 17.0664 18.5807 15.6444Z" fill="#4285F4"/>
<path d="M15.6909 17.915C15.2715 18.1979 14.7314 18.3633 14.0996 18.3633C12.8792 18.3633 11.8438 17.5409 11.4731 16.4324H9.91896V17.6381C10.6889 19.166 12.2714 20.2145 14.0996 20.2145C15.3632 20.2145 16.4248 19.7989 17.1975 19.0836L15.6909 17.915Z" fill="#34A853"/>
<path d="M11.3267 15.5379C11.3267 15.2266 11.3785 14.9258 11.473 14.6429V13.4372H9.91891C9.60056 14.069 9.42145 14.7821 9.42145 15.5379C9.42145 16.2937 9.6011 17.0068 9.91891 17.6386L11.473 16.4329C11.3785 16.15 11.3267 15.8492 11.3267 15.5379Z" fill="#FABB05"/>
<path d="M14.0996 12.712C14.7893 12.712 15.4069 12.9495 15.8945 13.4137L17.2297 12.0797C16.4188 11.3245 15.3616 10.8608 14.0996 10.8608C12.272 10.8608 10.6889 11.9093 9.91891 13.4372L11.473 14.6429C11.8438 13.5344 12.8792 12.712 14.0996 12.712Z" fill="#E94235"/>
</svg>
