<svg width="48" height="32" viewBox="0 0 48 32" fill="none" xmlns="http://www.w3.org/2000/svg">
<rect x="0.887946" y="0.887946" width="46.8384" height="30.2545" rx="5.49062" fill="white"/>
<rect x="0.887946" y="0.887946" width="46.8384" height="30.2545" rx="5.49062" stroke="#D6DCE5" stroke-width="0.224107"/>
<path d="M24.0222 11.121L21.8479 21.2845H19.2188L21.3934 11.121H24.0222ZM35.0839 17.6836L36.4681 13.8669L37.2645 17.6836H35.0839ZM38.0173 21.2845H40.4492L38.3271 11.121H36.0824C35.578 11.121 35.1524 11.4144 34.9629 11.8667L31.0184 21.2845H33.7794L34.3276 19.7668H37.7007L38.0173 21.2845ZM31.1555 17.9661C31.1667 15.2836 27.4458 15.1359 27.4716 13.9376C27.4793 13.5725 27.827 13.1852 28.5865 13.0858C28.9639 13.0366 30.0013 12.999 31.1793 13.541L31.6406 11.3857C31.0078 11.1561 30.1937 10.9351 29.181 10.9351C26.5825 10.9351 24.7534 12.3167 24.7379 14.295C24.7215 15.758 26.0436 16.5745 27.0399 17.0609C28.0641 17.5591 28.4083 17.8782 28.4038 18.3238C28.3971 19.0061 27.5867 19.3065 26.8308 19.3184C25.5087 19.3393 24.7415 18.9617 24.1299 18.6767L23.6535 20.9037C24.2676 21.1858 25.4016 21.4309 26.5779 21.4435C29.3396 21.4435 31.1465 20.0789 31.1555 17.9661ZM20.2653 11.121L16.0056 21.2845H13.2259L11.1298 13.1733C11.0024 12.6738 10.8918 12.491 10.5048 12.2803C9.87333 11.9377 8.82947 11.6157 7.91107 11.4163L7.9738 11.121H12.4474C13.0174 11.121 13.5305 11.5006 13.6598 12.1571L14.7671 18.0388L17.503 11.121H20.2653Z" fill="#1434CB"/>
</svg>
